# xmcd
#
# Track frame offsets: 
#        150
#        20071
#        31488
#        43219
#        56011
#        67218
#        79464
#        95369
#        108614
#        118861
#        129553
#        141996
#        159388
#        172395
#        191618
#        198831
#        205364
#        212867
#        231140
#        242662
#        249208
#        253971
#        259016
#        272515
#        285204
#        294025
#
# Disc length: 4054 seconds
#
# Revision: 0
# Processed by: cddbd v1.5.2PL0 Copyright (c) Steve Scherf et al.
# Submitted via: ExactAudioCopy v0.95b4
#
DISCID=930fd41a
DTITLE=Various Artist - Field Recordings, Volume 7 - Florida
DYEAR=1997
DGENRE=Blues
TTITLE0=Booker T. Sapps and Roger Matthews - The Train
TTITLE1=Booker T. Sapps and Roger Matthews - The Fox and the Hounds
TTITLE2=Booker T. Sapps and Roger Matthews - Alabama Blues, Part 2
TTITLE3=Booker T. Sapps and Roger Matthews - Uncle Bud (1 and 2)
TTITLE4=Booker T. Sapps and Roger Matthews - Frankie and Albert (Coone
TTITLE4=y and Delia)
TTITLE5=Booker T. Sapps and Roger Matthews - John Henry
TTITLE6=Booker T. Sapps and Roger Matthews - Po' Laz'us (Every Mail Da
TTITLE6=y, Muley on the Mountain)
TTITLE7=Booker T. Sapps and Roger Matthews - I'm a Pilgrim
TTITLE8=Gabriel Brown, John and Rochelle French - John Henry (A)
TTITLE9=Gabriel Brown, John and Rochelle French - John Henry (B)
TTITLE10=Gabriel Brown, John and Rochelle French - Casey Jones
TTITLE11=Gabriel Brown, John and Rochelle French - Sail On, Little Gir
TTITLE11=l, Sail On
TTITLE12=Gabriel Brown, John and Rochelle French - Out in the Cold Aga
TTITLE12=in
TTITLE13=Gabriel Brown, John and Rochelle French - Blues
TTITLE14=Gabriel Brown, John and Rochelle French - Tone the Bell Easy
TTITLE15=Gabriel Brown, John and Rochelle French - Motherless Child
TTITLE16=Gabriel Brown, John and Rochelle French - Franky and Albert (
TTITLE16=Cooney and Delia)
TTITLE17=Gabriel Brown, John and Rochelle French - Po' Boy, Long Ways 
TTITLE17=from Home
TTITLE18=Gabriel Brown, John and Rochelle French - A Dream of Mine
TTITLE19=Gabriel Brown, John and Rochelle French - Blues (I Ain't Got 
TTITLE19=No Mama Now) 1
TTITLE20=Gabriel Brown, John and Rochelle French - Blues (I Ain't Got 
TTITLE20=No Mama Now) 2
TTITLE21=Gabriel Brown, John and Rochelle French - What Did the Doodle
TTITLE21=Bug Say to the Mole?
TTITLE22=Gabriel Brown, John and Rochelle French - Education Blues
TTITLE23=Gabriel Brown, John and Rochelle French - Careless Love
TTITLE24=Gabriel Brown, John and Rochelle French - Uncle Bud
TTITLE25=Ozella Jones - Prisoner Blues
EXTD=
EXTT0=
EXTT1=
EXTT2=
EXTT3=
EXTT4=
EXTT5=
EXTT6=
EXTT7=
EXTT8=
EXTT9=
EXTT10=
EXTT11=
EXTT12=
EXTT13=
EXTT14=
EXTT15=
EXTT16=
EXTT17=
EXTT18=
EXTT19=
EXTT20=
EXTT21=
EXTT22=
EXTT23=
EXTT24=
EXTT25=
PLAYORDER=
